<?xml version="1.0" encoding="utf-8"?>
<!-- Generator: Adobe Illustrator 21.0.0, SVG Export Plug-In . SVG Version: 6.00 Build 0)  -->
<svg version="1.1" id="Layer_1" xmlns="http://www.w3.org/2000/svg" xmlns:xlink="http://www.w3.org/1999/xlink" x="0px" y="0px"
	 viewBox="0 0 750 1334" style="enable-background:new 0 0 750 1334;" xml:space="preserve">
<style type="text/css">
	.st0{fill:#498699;}
	.st1{font-family:'MyriadPro-Regular';}
	.st2{font-size:66.6646px;}
	.st3{letter-spacing:3;}
	.st4{font-size:47.6048px;}
	.st5{letter-spacing:2;}
	.st6{fill:#050505;}
</style>
<text transform="matrix(1.037000e-02 0.9999 -0.9999 1.037000e-02 67.1602 304.7815)" class="st0 st1 st2 st3">good</text>
<text transform="matrix(1 4.500000e-04 -4.500000e-04 1 123.5214 454.8215)" class="st0 st1 st4 st5">reads</text>
<g>
	<path class="st0" d="M231.6,369.2c3.3,0,5.9-2.7,5.9-5.9c0-3.3-2.7-5.9-5.9-5.9l-101.4,0.4c-10.3,0-18.6,8.4-18.5,18.7l0.1,21.1
		c0,6.6,3.7,18.6,18.7,18.5c11.3,0,101.4-0.4,101.4-0.4c3.3,0,5.9-2.7,5.9-5.9c0-3.2-2.7-5.9-5.9-5.9l-1.6,0l-0.1-34.8L231.6,369.2
		L231.6,369.2z M218.2,380.8l-38,0.2c-3.2,0-5.9,2.7-5.9,5.9c0,3.2,2.7,5.9,5.9,5.9l38-0.2l0,11.5l-88,0.4c-3.8,0-6.8-3-6.9-6.8
		l-0.1-21.1c0-3.8,3-6.8,6.8-6.9l88-0.4L218.2,380.8L218.2,380.8z"/>
	<path class="st6" d="M237.2,309.1c-1.6-0.2-25.4-3-30.8-3c-1.5,0-3.1,0.1-4.5,0.2c-4.6,0.3-9.2,1.4-13.7,2.4
		c-5,1.1-9.7,2.2-13.8,2.2c-4.1,0-8.7-1-13.5-2.1c-4.6-1-9.3-2.1-14.1-2.4c-1.5-0.1-3-0.2-4.6-0.1c-5.4,0-29.1,3-30.8,3.2
		c-3.3,0-6,2.8-6,6.1l0,5.2c0,3.3,2.7,6.1,6.1,6l3.7,0c1.6,12.1,8.5,20.5,18.6,22.5c1.9,0.4,3.9,0.6,5.8,0.6
		c5.7,0,11.1-1.8,15.8-5.1c4.6-3.2,8.2-7.8,10.5-13.2c0.2-0.4,0.3-0.8,0.5-1.2c0.1-0.3,2.4-6.2,8-6.2c5.6,0,8,5.9,8.1,6.2
		c0.1,0.4,0.3,0.8,0.5,1.2c2.3,5.4,6,9.9,10.6,13.1c4.7,3.3,10.2,5,15.9,4.9c1.9,0,3.9-0.2,5.8-0.6c10-2.1,16.8-10.5,18.4-22.7
		l3.7,0c3.3,0,6.1-2.7,6-6.1l0-5.2C243.2,311.8,240.5,309.1,237.2,309.1z M159.1,329c-3.6,8.5-11.1,13.8-19.7,13.8
		c-1.4,0-2.9-0.1-4.3-0.4c-10.5-2.1-12.6-13.4-13-18.1c-0.2-2.2,0.4-4,1.7-5.5c2.9-3.2,9.6-5,18.3-5.1c1.4,0,2.7,0,4.1,0.1
		c5.9,0.4,9.8,1.5,12.4,3.7C159.7,318.3,162.6,320.8,159.1,329z M226.5,323.8c-0.4,4.8-2.3,16-12.8,18.2c-1.4,0.3-2.9,0.5-4.3,0.5
		c-8.6,0-16.1-5.2-19.8-13.6c-3.5-8.2-0.6-10.7,0.4-11.5c2.6-2.2,6.5-3.4,12.4-3.8c1.3-0.1,2.7-0.2,4-0.2c8.7,0,15.4,1.8,18.4,4.9
		C226.1,319.7,226.7,321.5,226.5,323.8z"/>
</g>
</svg>
